<svg width="26" height="26" viewBox="0 0 26 26" fill="none" xmlns="http://www.w3.org/2000/svg">
<path d="M20.8 0H5.2C2.32812 0 0 2.32812 0 5.2V20.8C0 23.6719 2.32812 26 5.2 26H20.8C23.6719 26 26 23.6719 26 20.8V5.2C26 2.32812 23.6719 0 20.8 0Z" fill="#FEDA03"/>
<path d="M17.9403 12.9048C18.7593 12.692 19.488 12.0794 19.488 10.8477C19.488 8.79718 17.7469 8.31995 15.5158 8.31995H6.62988V17.5541H10.3699V14.4202H14.8064C15.49 14.4202 15.8898 14.691 15.8898 15.3617V17.5541H19.6299V15.2456C19.6299 13.9881 18.9205 13.1949 17.9403 12.9048ZM14.8709 11.9311H10.3699V11.0283H14.8709C15.361 11.0283 15.6576 11.0928 15.6576 11.4797C15.6576 11.8666 15.361 11.9311 14.8709 11.9311Z" fill="black"/>
</svg>
